<svg width="17" height="17" viewBox="0 0 17 17" fill="none" xmlns="http://www.w3.org/2000/svg">
<path d="M11.4814 4.10522L12.8934 5.51655L11.4814 4.10522ZM12.3894 2.86188L8.57136 6.67989C8.37409 6.87688 8.23955 7.12787 8.1847 7.40122L7.83203 9.16655L9.59736 8.81322C9.8707 8.75855 10.1214 8.62455 10.3187 8.42722L14.1367 4.60922C14.2514 4.49449 14.3424 4.35828 14.4045 4.20838C14.4666 4.05847 14.4986 3.89781 14.4986 3.73555C14.4986 3.5733 14.4666 3.41263 14.4045 3.26273C14.3424 3.11282 14.2514 2.97662 14.1367 2.86188C14.022 2.74715 13.8858 2.65614 13.7359 2.59405C13.586 2.53196 13.4253 2.5 13.263 2.5C13.1008 2.5 12.9401 2.53196 12.7902 2.59405C12.6403 2.65614 12.5041 2.74715 12.3894 2.86188V2.86188Z" stroke="#558FE6" stroke-linecap="round" stroke-linejoin="round"/>
<path d="M13.166 10.5007V12.5007C13.166 12.8543 13.0255 13.1934 12.7755 13.4435C12.5254 13.6935 12.1863 13.834 11.8327 13.834H4.49935C4.14573 13.834 3.80659 13.6935 3.55654 13.4435C3.30649 13.1934 3.16602 12.8543 3.16602 12.5007V5.16732C3.16602 4.8137 3.30649 4.47456 3.55654 4.22451C3.80659 3.97446 4.14573 3.83398 4.49935 3.83398H6.49935" stroke="#558FE6" stroke-linecap="round" stroke-linejoin="round"/>
</svg>
