<svg width="16" height="17" viewBox="0 0 16 17" fill="none" xmlns="http://www.w3.org/2000/svg">
<path d="M1.33398 8.50065L4.66732 11.1673V9.16732H10.6673V7.83398H4.66732V5.83398L1.33398 8.50065Z" fill="#F46A6A"/>
<path d="M8.6665 2.50002C7.87818 2.49784 7.09727 2.6521 6.36899 2.95387C5.64072 3.25563 4.97956 3.69891 4.42383 4.25802L5.36649 5.20069C6.24783 4.31936 7.41983 3.83336 8.6665 3.83336C9.91316 3.83336 11.0852 4.31936 11.9665 5.20069C12.8478 6.08202 13.3338 7.25402 13.3338 8.50069C13.3338 9.74736 12.8478 10.9194 11.9665 11.8007C11.0852 12.682 9.91316 13.168 8.6665 13.168C7.41983 13.168 6.24783 12.682 5.36649 11.8007L4.42383 12.7434C5.55649 13.8767 7.06316 14.5014 8.6665 14.5014C10.2698 14.5014 11.7765 13.8767 12.9092 12.7434C14.0425 11.6107 14.6672 10.104 14.6672 8.50069C14.6672 6.89736 14.0425 5.39069 12.9092 4.25802C12.3534 3.69891 11.6923 3.25563 10.964 2.95387C10.2357 2.6521 9.45481 2.49784 8.6665 2.50002Z" fill="#F46A6A"/>
</svg>
